<svg xmlns="http://www.w3.org/2000/svg" width="19" height="15" viewBox="0 0 19 15" fill="none">
  <path fill-rule="evenodd" clip-rule="evenodd" d="M0.630902 8.28459C0.456893 7.77243 0.456893 7.22757 0.630902 6.71541C1.25191 4.88759 3.33408 0.5 9.01323 0.5C14.6924 0.5 16.7745 4.88759 17.3956 6.71541C17.5696 7.22757 17.5696 7.77243 17.3956 8.28459C16.7745 10.1124 14.6924 14.5 9.01323 14.5C3.33408 14.5 1.25191 10.1124 0.630902 8.28459ZM11.8825 7.5C11.8825 9.15685 10.5979 10.5 9.01323 10.5C7.42855 10.5 6.14391 9.15685 6.14391 7.5C6.14391 5.84315 7.42855 4.5 9.01323 4.5C10.5979 4.5 11.8825 5.84315 11.8825 7.5Z" stroke="#7A7A7A" stroke-linecap="round" stroke-linejoin="round"/>
</svg>