<svg xmlns="http://www.w3.org/2000/svg" width="12" height="12" viewBox="0 0 12 12" fill="none">
  <g clip-path="url(#clip0_2093_18846)">
    <path d="M5.75 2.875H5.03125V6.46875H7.90625V5.75H5.75V2.875Z" fill="currentColor"/>
    <path d="M5.75 0C3.59375 0 1.725 1.15 0.790625 2.94687L0 2.15625V5.03125H2.875L1.79688 3.95312C2.51562 2.51562 4.025 1.4375 5.75 1.4375C8.12187 1.4375 10.0625 3.37812 10.0625 5.75C10.0625 8.12187 8.12187 10.0625 5.75 10.0625C4.45625 10.0625 3.30625 9.4875 2.51562 8.55312L1.4375 9.4875C2.44375 10.7094 4.025 11.5 5.75 11.5C8.9125 11.5 11.5 8.9125 11.5 5.75C11.5 2.5875 8.9125 0 5.75 0Z" fill="currentColor"/>
  </g>
  <defs>
    <clipPath id="clip0_2093_18846">
      <rect width="11.5" height="11.5" fill="white"/>
    </clipPath>
  </defs>
</svg>