<svg xmlns="http://www.w3.org/2000/svg" width="12" height="12" viewBox="0 0 12 12" fill="none">
  <g clip-path="url(#clip0_2093_18856)">
    <path d="M2.13789 0.712402H9.26289C10.0523 0.712402 10.6879 1.34795 10.6879 2.1374V9.2624C10.6879 10.0519 10.0523 10.6874 9.26289 10.6874H2.13789C1.34844 10.6874 0.712891 10.0519 0.712891 9.2624V2.1374C0.712891 1.34795 1.34844 0.712402 2.13789 0.712402Z" stroke="currentColor" stroke-linecap="round" stroke-linejoin="round"/>
    <path d="M2.85059 2.8501H3.56309" stroke="currentColor" stroke-linecap="round" stroke-linejoin="round"/>
    <path d="M4.27578 3.56221C4.08681 3.56221 3.90559 3.48714 3.77197 3.35352C3.63835 3.2199 3.56328 3.03867 3.56328 2.84971C3.56328 2.66074 3.63835 2.47951 3.77197 2.34589C3.90559 2.21227 4.08681 2.13721 4.27578 2.13721C4.36935 2.13721 4.462 2.15564 4.54844 2.19144C4.63489 2.22725 4.71343 2.27973 4.77959 2.34589C4.84576 2.41206 4.89824 2.4906 4.93405 2.57705C4.96985 2.66349 4.98828 2.75614 4.98828 2.84971C4.98828 2.94327 4.96985 3.03592 4.93405 3.12237C4.89824 3.20881 4.84576 3.28736 4.77959 3.35352C4.71343 3.41968 4.63489 3.47216 4.54844 3.50797C4.462 3.54378 4.36935 3.56221 4.27578 3.56221Z" stroke="currentColor" stroke-linecap="round" stroke-linejoin="round"/>
    <path d="M4.98828 2.85012L8.55078 2.8501" stroke="currentColor" stroke-linecap="round" stroke-linejoin="round"/>
    <path d="M8.55039 5.69971H7.83789" stroke="currentColor" stroke-linecap="round" stroke-linejoin="round"/>
    <path d="M7.12559 6.4123C7.31455 6.4123 7.49578 6.33724 7.6294 6.20362C7.76302 6.07 7.83809 5.88877 7.83809 5.6998C7.83809 5.51084 7.76302 5.32961 7.6294 5.19599C7.49578 5.06237 7.31455 4.9873 7.12559 4.9873C6.93662 4.9873 6.75539 5.06237 6.62177 5.19599C6.48815 5.32961 6.41309 5.51084 6.41309 5.6998C6.41309 5.88877 6.48815 6.07 6.62177 6.20362C6.75539 6.33724 6.93662 6.4123 7.12559 6.4123Z" stroke="currentColor" stroke-linecap="round" stroke-linejoin="round"/>
    <path d="M6.41308 5.69973L2.85059 5.69971" stroke="currentColor" stroke-linecap="round" stroke-linejoin="round"/>
    <path d="M2.85059 8.5498H3.56309" stroke="currentColor" stroke-linecap="round" stroke-linejoin="round"/>
    <path d="M4.27578 9.2624C4.08681 9.2624 3.90559 9.18734 3.77197 9.05372C3.63835 8.9201 3.56328 8.73887 3.56328 8.5499C3.56328 8.36094 3.63835 8.17971 3.77197 8.04609C3.90559 7.91247 4.08681 7.8374 4.27578 7.8374C4.36935 7.8374 4.462 7.85583 4.54844 7.89164C4.63489 7.92744 4.71343 7.97993 4.77959 8.04609C4.84576 8.11225 4.89824 8.1908 4.93405 8.27724C4.96985 8.36368 4.98828 8.45634 4.98828 8.5499C4.98828 8.64347 4.96985 8.73612 4.93405 8.82256C4.89824 8.90901 4.84576 8.98755 4.77959 9.05372C4.71343 9.11988 4.63489 9.17236 4.54844 9.20817C4.462 9.24397 4.36935 9.2624 4.27578 9.2624Z" stroke="currentColor" stroke-linecap="round" stroke-linejoin="round"/>
    <path d="M4.98828 8.54983L8.55078 8.5498" stroke="currentColor" stroke-linecap="round" stroke-linejoin="round"/>
  </g>
  <defs>
    <clipPath id="clip0_2093_18856">
      <rect width="11.4" height="11.4" fill="white"/>
    </clipPath>
  </defs>
</svg>