<svg xmlns="http://www.w3.org/2000/svg" width="12" height="12" viewBox="0 0 12 12" fill="none">
  <g clip-path="url(#clip0_2619_9834)">
    <path d="M2.13789 0.712891H9.26289C10.0523 0.712891 10.6879 1.34844 10.6879 2.13789V9.26289C10.6879 10.0523 10.0523 10.6879 9.26289 10.6879H2.13789C1.34844 10.6879 0.712891 10.0523 0.712891 9.26289V2.13789C0.712891 1.34844 1.34844 0.712891 2.13789 0.712891Z" stroke="#A0AEC0" stroke-linecap="round" stroke-linejoin="round"/>
    <path d="M2.85059 2.85059H3.56309" stroke="#A0AEC0" stroke-linecap="round" stroke-linejoin="round"/>
    <path d="M4.27578 3.5627C4.08681 3.5627 3.90559 3.48763 3.77197 3.35401C3.63835 3.22039 3.56328 3.03916 3.56328 2.8502C3.56328 2.66123 3.63835 2.48 3.77197 2.34638C3.90559 2.21276 4.08681 2.1377 4.27578 2.1377C4.36935 2.1377 4.462 2.15612 4.54844 2.19193C4.63489 2.22774 4.71343 2.28022 4.77959 2.34638C4.84576 2.41254 4.89824 2.49109 4.93405 2.57753C4.96985 2.66398 4.98828 2.75663 4.98828 2.8502C4.98828 2.94376 4.96985 3.03641 4.93405 3.12286C4.89824 3.2093 4.84576 3.28785 4.77959 3.35401C4.71343 3.42017 4.63489 3.47265 4.54844 3.50846C4.462 3.54427 4.36935 3.5627 4.27578 3.5627Z" stroke="#A0AEC0" stroke-linecap="round" stroke-linejoin="round"/>
    <path d="M4.98828 2.85061L8.55078 2.85059" stroke="#A0AEC0" stroke-linecap="round" stroke-linejoin="round"/>
    <path d="M8.55039 5.7002H7.83789" stroke="#A0AEC0" stroke-linecap="round" stroke-linejoin="round"/>
    <path d="M7.12559 6.41328C7.31455 6.41328 7.49578 6.33821 7.6294 6.20459C7.76302 6.07097 7.83809 5.88975 7.83809 5.70078C7.83809 5.51181 7.76302 5.33059 7.6294 5.19697C7.49578 5.06335 7.31455 4.98828 7.12559 4.98828C6.93662 4.98828 6.75539 5.06335 6.62177 5.19697C6.48815 5.33059 6.41309 5.51181 6.41309 5.70078C6.41309 5.88975 6.48815 6.07097 6.62177 6.20459C6.75539 6.33821 6.93662 6.41328 7.12559 6.41328Z" stroke="#A0AEC0" stroke-linecap="round" stroke-linejoin="round"/>
    <path d="M6.41308 5.70022L2.85059 5.7002" stroke="#A0AEC0" stroke-linecap="round" stroke-linejoin="round"/>
    <path d="M2.85059 8.55078H3.56309" stroke="#A0AEC0" stroke-linecap="round" stroke-linejoin="round"/>
    <path d="M4.27578 9.26289C4.08681 9.26289 3.90559 9.18782 3.77197 9.0542C3.63835 8.92058 3.56328 8.73936 3.56328 8.55039C3.56328 8.36142 3.63835 8.1802 3.77197 8.04658C3.90559 7.91296 4.08681 7.83789 4.27578 7.83789C4.36935 7.83789 4.462 7.85632 4.54844 7.89213C4.63489 7.92793 4.71343 7.98042 4.77959 8.04658C4.84576 8.11274 4.89824 8.19128 4.93405 8.27773C4.96985 8.36417 4.98828 8.45682 4.98828 8.55039C4.98828 8.64396 4.96985 8.73661 4.93405 8.82305C4.89824 8.9095 4.84576 8.98804 4.77959 9.0542C4.71343 9.12037 4.63489 9.17285 4.54844 9.20865C4.462 9.24446 4.36935 9.26289 4.27578 9.26289Z" stroke="#A0AEC0" stroke-linecap="round" stroke-linejoin="round"/>
    <path d="M4.98828 8.5508L8.55078 8.55078" stroke="#A0AEC0" stroke-linecap="round" stroke-linejoin="round"/>
  </g>
  <defs>
    <clipPath id="clip0_2619_9834">
      <rect width="11.4" height="11.4" fill="white"/>
    </clipPath>
  </defs>
</svg>