<svg xmlns="http://www.w3.org/2000/svg" width="12" height="13" viewBox="0 0 12 13" fill="none">
  <path fill-rule="evenodd" clip-rule="evenodd" d="M3.09414 1.15128C4.39044 0.383972 5.03828 0 5.75 0C6.46172 0 7.10956 0.383333 8.40586 1.15128L8.84414 1.41067C10.1404 2.17861 10.7883 2.56258 11.1441 3.19444C11.5 3.82694 11.5 4.59361 11.5 6.1295V6.64828C11.5 8.18353 11.5 8.95147 11.1441 9.58333C10.7883 10.2152 10.1404 10.5992 8.84414 11.3665L8.40586 11.6265C7.10956 12.3938 6.46172 12.7778 5.75 12.7778C5.03828 12.7778 4.39044 12.3944 3.09414 11.6265L2.65586 11.3665C1.35956 10.5998 0.711722 10.2152 0.355861 9.58333C-3.80807e-08 8.95083 0 8.18417 0 6.64828V6.1295C0 4.59361 -3.80807e-08 3.82631 0.355861 3.19444C0.711722 2.56258 1.35956 2.17861 2.65586 1.41067L3.09414 1.15128ZM6.38889 8.94444C6.38889 9.11389 6.32158 9.27639 6.20176 9.39621C6.08195 9.51602 5.91944 9.58333 5.75 9.58333C5.58056 9.58333 5.41805 9.51602 5.29824 9.39621C5.17842 9.27639 5.11111 9.11389 5.11111 8.94444C5.11111 8.775 5.17842 8.6125 5.29824 8.49268C5.41805 8.37287 5.58056 8.30556 5.75 8.30556C5.91944 8.30556 6.08195 8.37287 6.20176 8.49268C6.32158 8.6125 6.38889 8.775 6.38889 8.94444ZM5.75 2.71528C5.87708 2.71528 5.99896 2.76576 6.08882 2.85562C6.17868 2.94548 6.22917 3.06736 6.22917 3.19444V7.02778C6.22917 7.15486 6.17868 7.27674 6.08882 7.3666C5.99896 7.45646 5.87708 7.50694 5.75 7.50694C5.62292 7.50694 5.50104 7.45646 5.41118 7.3666C5.32132 7.27674 5.27083 7.15486 5.27083 7.02778V3.19444C5.27083 3.06736 5.32132 2.94548 5.41118 2.85562C5.50104 2.76576 5.62292 2.71528 5.75 2.71528Z" fill="currentColor"/>
</svg>